<?xml version="1.0" encoding="UTF-8"?>
<!DOCTYPE svg PUBLIC "-//W3C//DTD SVG 1.1//EN" "http://www.w3.org/Graphics/SVG/1.1/DTD/svg11.dtd">
<!-- Creator: CorelDRAW -->
<svg xmlns="http://www.w3.org/2000/svg" xml:space="preserve" width="148.27mm" height="53.3284mm" version="1.1" style="shape-rendering:geometricPrecision; text-rendering:geometricPrecision; image-rendering:optimizeQuality; fill-rule:evenodd; clip-rule:evenodd"
viewBox="0 0 2620.01 942.34"
 xmlns:xlink="http://www.w3.org/1999/xlink"
 xmlns:xodm="http://www.corel.com/coreldraw/odm/2003">
 <defs>
  <style type="text/css">
   <![CDATA[
    .str0 {stroke:#2B2A29;stroke-width:3.53;stroke-miterlimit:22.9256}
    .fil0 {fill:#202020}
    .fil1 {fill:#E63F19}
    .fil3 {fill:#EDC22E}
    .fil4 {fill:#EDCC61}
    .fil2 {fill:#EEE4DA}
   ]]>
  </style>
 </defs>
 <g id="Слой_x0020_1">
  <metadata id="CorelCorpID_0Corel-Layer"/>
  <g id="_2334390685248">
   <rect class="fil0 str0" x="1.77" y="1.77" width="2616.47" height="938.81" rx="88.35" ry="88.35"/>
   <g>
    <path class="fil1" d="M2274.53 736.95c127.62,0.09 202.9,-151.86 128.4,-266.81 73.22,-122.9 3.96,-270.86 -134.83,-270.87l-181.98 0c-138.79,0.01 -208.05,147.97 -134.83,270.87 -74.5,114.96 0.78,266.9 128.4,266.81l194.83 0zm-188.87 -403.14l182.51 0c17.06,0 31.01,13.95 31.01,31.01l0 4.99c0,17.06 -13.95,31.01 -31.01,31.01l-182.51 0c-17.06,0 -31.01,-13.95 -31.01,-31.01l0 -4.99c0,-17.06 13.95,-31.01 31.01,-31.01zm0 200.55l182.51 0c17.06,0 31.01,13.95 31.01,31.01l0 4.99c0,17.06 -13.95,31.01 -31.01,31.01l-182.51 0c-17.06,0 -31.01,-13.95 -31.01,-31.01l0 -4.99c0,-17.06 13.95,-31.01 31.01,-31.01z"/>
    <path class="fil2" d="M221.52 334.08c98,3.12 217.7,-0.49 315.72,-0.49 39.24,0 33.61,66.4 4.39,66.33l-192.7 -0.52c-78.8,-0.21 -161.45,38.85 -161.45,130.01l0 207.44 479.47 0 -2.08 -135.04 -341.99 0.02 0.41 -66.02 212.16 0.95c104.03,0.46 165.7,-89.74 163.27,-176.62 -2.28,-81.53 -62.3,-161 -159.53,-160.97l-317.72 0.1 0.07 134.81z"/>
    <path class="fil3" d="M1619.55 338.74l-0.19 161.16 -121.46 -0.54 121.66 -160.62zm-0.19 295.38l0 101.42 134.17 1.38 0 -102.3 125.69 -0.53 -0.06 -134.19 -125.63 -0.07 0.05 -300.56 -197.71 0 -188.46 249.61c-36.78,48.43 -46.39,104.97 -0.15,152.14 26.32,26.85 62.1,33.16 107.52,33.13 48.19,-0.04 96.39,-0.02 144.58,-0.02z"/>
    <path class="fil4" d="M1017.65 187.91c152.29,0 275.75,126.82 275.75,283.26 0,156.44 -123.46,283.26 -275.75,283.26 -152.29,0 -275.75,-126.82 -275.75,-283.26 0,-156.44 123.46,-283.26 275.75,-283.26zm1.13 132.64c79.03,0 143.1,67.44 143.1,150.63 0,83.19 -64.07,150.63 -143.1,150.63 -79.03,0 -143.1,-67.44 -143.1,-150.63 0,-83.19 64.07,-150.63 143.1,-150.63z"/>
   </g>
  </g>
 </g>
</svg>
