<?xml version="1.0" encoding="UTF-8"?>
<!DOCTYPE svg PUBLIC "-//W3C//DTD SVG 1.1//EN" "http://www.w3.org/Graphics/SVG/1.1/DTD/svg11.dtd">
<!-- Creator: CorelDRAW -->
<svg xmlns="http://www.w3.org/2000/svg" xml:space="preserve" width="13.1654mm" height="10mm" version="1.1" style="shape-rendering:geometricPrecision; text-rendering:geometricPrecision; image-rendering:optimizeQuality; fill-rule:evenodd; clip-rule:evenodd"
viewBox="0 0 24.57 18.66"
 xmlns:xlink="http://www.w3.org/1999/xlink"
 xmlns:xodm="http://www.corel.com/coreldraw/odm/2003">
 <defs>
  <style type="text/css">
   <![CDATA[
    .fil1 {fill:#EDC22E;fill-rule:nonzero}
    .fil0 {fill:#EDCC61;fill-rule:nonzero}
   ]]>
  </style>
 </defs>
 <g id="Слой_x0020_1">
  <metadata id="CorelCorpID_0Corel-Layer"/>
  <g id="_2085619775168">
   <path class="fil0" d="M15.93 14.47c-1.27,0.9 -2.82,1.3 -4.37,1.12 -3.04,-0.35 -5.32,-2.82 -5.55,-5.76l3.08 0 -4.54 -6.42 -4.54 6.42 2.97 0c0.24,4.46 3.66,8.24 8.24,8.77 2.29,0.27 4.59,-0.32 6.47,-1.66 0.42,-0.3 0.64,-0.76 0.64,-1.24 0,-0.3 -0.09,-0.61 -0.28,-0.88 -0.49,-0.68 -1.43,-0.84 -2.12,-0.36z"/>
   <path class="fil1" d="M6.88 1.72c-0.68,0.49 -0.84,1.43 -0.36,2.12 0.49,0.68 1.43,0.84 2.12,0.36 1.27,-0.9 2.82,-1.3 4.37,-1.12 3.04,0.35 5.32,2.82 5.55,5.76l-3.08 0 4.54 6.42 4.54 -6.42 -2.97 0c-0.24,-4.46 -3.67,-8.24 -8.25,-8.77 -2.29,-0.27 -4.59,0.32 -6.47,1.66z"/>
  </g>
 </g>
</svg>
