<?xml version="1.0" encoding="UTF-8"?>
<!DOCTYPE svg PUBLIC "-//W3C//DTD SVG 1.1//EN" "http://www.w3.org/Graphics/SVG/1.1/DTD/svg11.dtd">
<!-- Creator: CorelDRAW -->
<svg xmlns="http://www.w3.org/2000/svg" xml:space="preserve" width="10mm" height="13.1654mm" version="1.1" style="shape-rendering:geometricPrecision; text-rendering:geometricPrecision; image-rendering:optimizeQuality; fill-rule:evenodd; clip-rule:evenodd"
viewBox="0 0 14.24 18.75"
 xmlns:xlink="http://www.w3.org/1999/xlink"
 xmlns:xodm="http://www.corel.com/coreldraw/odm/2003">
 <defs>
  <style type="text/css">
   <![CDATA[
    .fil1 {fill:#EDC22E;fill-rule:nonzero}
    .fil0 {fill:#EDCC61;fill-rule:nonzero}
   ]]>
  </style>
 </defs>
 <g id="Слой_x0020_1">
  <metadata id="CorelCorpID_0Corel-Layer"/>
  <g id="_2086063818160">
   <path class="fil0" d="M3.2 12.16c-0.69,-0.97 -0.99,-2.15 -0.86,-3.33 0.27,-2.32 2.15,-4.06 4.39,-4.24l0 2.35 4.9 -3.47 -4.9 -3.47 0 2.27c-3.4,0.18 -6.29,2.8 -6.69,6.29 -0.2,1.75 0.25,3.5 1.27,4.94 0.23,0.32 0.58,0.49 0.94,0.49 0.23,0 0.47,-0.07 0.67,-0.21 0.52,-0.37 0.64,-1.09 0.27,-1.61z"/>
   <path class="fil1" d="M12.92 5.25c-0.37,-0.52 -1.09,-0.64 -1.61,-0.27 -0.52,0.37 -0.64,1.09 -0.27,1.61 0.69,0.97 0.99,2.15 0.85,3.33 -0.27,2.32 -2.15,4.06 -4.39,4.24l0 -2.35 -4.9 3.47 4.9 3.47 0 -2.26c3.4,-0.18 6.29,-2.8 6.69,-6.29 0.2,-1.75 -0.25,-3.5 -1.27,-4.94z"/>
  </g>
 </g>
</svg>
